<svg xmlns="http://www.w3.org/2000/svg" viewBox="0 0 1510.67 354.06"><path d="M594.5 129.89h-.3l-14.39 41.11h29.11zm-11-20h22.54l39.13 99.67h-22.1l-8.57-22.83h-40.4l-8.71 22.83h-20.72zM675.59 152.46h6.59c9.84 0 21.14-1.45 21.14-13.87 0-12-11.15-13-21.14-13h-6.59zm-20-42.57h21.57c21.41 0 47-.71 47 27 0 11.7-7.85 21.39-20.56 23.12v.26c5.43.44 8.57 5.87 10.57 10.29l16 39h-22.31l-12-31.14c-2.86-7.42-5.4-10.27-13.86-10.27h-6.44v41.42h-20zM762.26 125.6h-28.56v-15.71h77.12v15.71h-28.59v83.97h-19.97v-83.97zM877 128.17a51.53 51.53 0 0 0-20.26-4.29c-6.86 0-15.72 3-15.72 13.86 0 17.28 43.71 10 43.71 43.4 0 21.85-17.3 30.15-37.41 30.15-10.85 0-15.71-1.41-25.56-3.86l1.84-18a48.19 48.19 0 0 0 22.57 6.15c7.57 0 17.7-3.86 17.7-12.85 0-19-43.68-11.14-43.68-44.13 0-22.28 17.26-30.42 34.84-30.42a75.1 75.1 0 0 1 23.83 3.58zM1012.27 208.16a101.81 101.81 0 0 1-22.71 3.12c-32.26 0-54.69-16.13-54.69-49.85 0-34.1 20.85-53.25 54.69-53.25a65.6 65.6 0 0 1 22.55 4.15l-1.43 16.85c-7.57-4.29-14.41-5.29-21.56-5.29-20.56 0-33.41 15.7-33.41 36.13 0 20.28 12.55 35.56 33.84 35.56 7.86 0 17.11-1.73 21.84-4.14zM1070.36 195.57c20.41 0 28-18.14 28-36.13 0-17.57-8.16-35.55-28-35.55s-28 18-28 35.55c0 18 7.57 36.13 28 36.13m0-87.4c31.26 0 48.84 21.14 48.84 51.27s-17.3 51.83-48.84 51.83c-32 0-48.82-21.28-48.82-51.83s17.12-51.27 48.82-51.27" fill="#162063"/><path d="M1132.46 109.89h20v57.56c0 17 5.42 28.12 20.72 28.12s20.7-11.13 20.7-28.12v-57.56h20v63.7c0 26.69-15.14 37.69-40.68 37.69s-40.71-11-40.71-37.69zM1228.84 109.89h24.55l37.97 74.56h.3v-74.56h19.13v99.67h-24.41l-38.12-74.54h-.29v74.54h-19.13v-99.67zM1401.16 208.16a101.61 101.61 0 0 1-22.69 3.12c-32.28 0-54.7-16.13-54.7-49.85 0-34.1 20.85-53.25 54.7-53.25a65.5 65.5 0 0 1 22.53 4.15l-1.4 16.85c-7.58-4.29-14.42-5.29-21.56-5.29-20.56 0-33.43 15.7-33.43 36.13 0 20.28 12.55 35.56 33.85 35.56 7.84 0 17.12-1.73 21.83-4.14zM1416.3 109.89h19.99v99.67h-19.99zM1451.98 109.89h19.99v83.96h38.7v15.71h-58.69v-99.67zM544.97 252.68h58.83v15.69h-38.85v24.57h35.56v15.71h-35.56v27.98h39.13v15.71h-59.11v-99.66zM620.49 252.68h24.57l37.97 74.52h.29v-74.52h19.13v99.66h-24.41l-38.13-74.53h-.28v74.53h-19.14v-99.66zM798.82 272c-7.71-3.57-17.71-5.28-25.73-5.28-23.26 0-36.09 15.7-36.09 36.12 0 20.26 12.55 35.54 33.82 35.54a54.61 54.61 0 0 0 13.18-1.46v-26h-21.17v-15.7h40.25v53.69c-10.55 2.85-21.55 5.14-32.26 5.14-32.26 0-54.68-16.15-54.68-49.84 0-34.13 20.85-53.25 54.68-53.25a98.08 98.08 0 0 1 29.28 4.14zM819.08 252.68h19.99v83.95h38.69v15.71h-58.68v-99.66zM936.44 272.65h-.27l-14.44 41.13h29.13zm-11-20h22.56l39.13 99.67h-22.13l-8.58-22.85h-40.42l-8.7 22.85h-20.69zM996.83 252.68h24.56l37.98 74.52h.27v-74.52h19.15v99.66h-24.42l-38.13-74.53h-.29v74.53h-19.12v-99.66zM1115.09 336.63h11.14c16.69 0 32.84-12.41 32.84-34.11s-16.15-34.14-32.84-34.14h-11.14zm-20-84h27.27c30.53 0 57.54 10.29 57.54 49.84s-27 49.83-57.54 49.83h-27.27zM1444.68 20.94h-4.33l11.35 32.41-.81 2.83c-1.26 4.14-2.38 7-5.78 7a7.93 7.93 0 0 1-2.93-.5l-.39 3.38a19.09 19.09 0 0 0 4.27.5c4.46 0 6.71-4.39 8.22-8.79l12.8-36.8h-4.14l-9.23 26.69h-.06zm-12.89 16c0 6.22-1.94 13.38-9.49 13.38-7 0-9.49-7.54-9.49-13.38s2.27-13.38 9.49-13.38c7.55 0 9.49 7.16 9.49 13.38m-22.93 16h3.95v-5.05h.13c2.14 4.08 5.4 5.84 10 5.84 8.8 0 13.19-7.28 13.19-16.77 0-9.74-3.77-16.76-13.19-16.76a10.77 10.77 0 0 0-10 6.15h-.13v-20.48h-3.95zm-21.4-32h-3.95v3.64h-.12c-3-3.83-5.72-4.39-10-4.39-9.41 0-13.17 7-13.17 16.76 0 7.1 3.26 16 13.49 16a9.94 9.94 0 0 0 9.75-6.27h.12c0 9-.88 16.46-11 16.46a21.58 21.58 0 0 1-9.42-2.27l-.31 4a33.39 33.39 0 0 0 9.67 1.69c11 0 15-7.28 15-16.2zm-22.92 16c0-6.22 2-13.38 9.49-13.38 7.22 0 9.48 5.65 9.48 13.38 0 5.84-2.57 12.63-9.73 12.63-6.73 0-9.24-6.34-9.24-12.63m-38.16 16h4v-17.69c0-5.33 2.25-11.68 9.49-11.68 5.46 0 7.61 3.89 7.61 9.92v19.51h3.94v-20.51c0-7-3-12.3-10.92-12.3-6.67 0-9.05 3.57-10.37 6.46h-.13v-5.71h-3.83c.25 2.58.25 5.09.25 7.54zm-10.58-45.81h-3.95v5.27h3.95zm-3.94 45.87h3.94v-32h-3.94zm-33.29-16c0-6.22 1.94-13.38 9.49-13.38 7 0 9.49 7.54 9.49 13.38s-2.46 13.38-9.49 13.38c-7.54 0-9.49-7.16-9.49-13.38m22.92-31.09h-3.94v20.43h-.13a10.79 10.79 0 0 0-10-6.15c-9.43 0-13.18 7-13.18 16.76 0 9.49 4.39 16.77 13.18 16.77 4.59 0 7.86-1.76 10-5.84h.13v5.12h3.94zm-61.17 47.09h3.95v-17.75c0-5.33 2.26-11.68 9.49-11.68 5.46 0 7.6 3.89 7.6 9.92v19.51h4v-20.51c0-7-3-12.3-10.92-12.3-6.66 0-9.05 3.57-10.37 6.46h-.13v-5.71h-3.83c.25 2.58.25 5.09.25 7.54zm-10.64-32h-4v17.65c0 5.34-2.25 11.68-9.49 11.68-5.46 0-7.6-3.89-7.6-9.92v-19.47h-4v20.48c0 7 3 12.31 10.92 12.31 6.67 0 9.05-3.57 10.37-6.46h.13v5.73h3.83c-.25-2.58-.25-5.08-.25-7.53zm-43.77 32h3.95v-28.67h7.22v-3.39h-7.22v-2.77c0-3.83-.57-9.68 4.84-9.68a6.93 6.93 0 0 1 3.13.7l.25-3.45a9.1 9.1 0 0 0-3.71-.62c-8.22 0-8.47 6.77-8.47 13.5v2.33h-6.47v3.38h6.47zm-21.65-31.53a24.14 24.14 0 0 0-7.73-1.25c-9.47 0-15.81 6.9-15.81 16.76 0 8.92 5 16.77 15.32 16.77a23.87 23.87 0 0 0 8.23-1.13l-.38-3.7a20.59 20.59 0 0 1-7.22 1.44c-7.23 0-11.62-6.09-11.62-13.38 0-7.79 4.34-13.38 12.05-13.38a18.06 18.06 0 0 1 6.85 1.64zm-32.14-14.34h-3.95v5.27h3.95zm-3.95 45.87h3.94v-32h-3.94zm-14.52 0h4v-47.13h-4zm-13.39-16c0 6.22-1.94 13.38-9.49 13.38-7 0-9.49-7.54-9.49-13.38s2.27-13.38 9.49-13.38c7.54 0 9.49 7.16 9.49 13.38m-22.92 16h3.95v-5.11h.13c2.14 4.08 5.4 5.84 10 5.84 8.8 0 13.19-7.28 13.19-16.77 0-9.74-3.77-16.76-13.19-16.76a10.78 10.78 0 0 0-10 6.15h-.13v-20.48h-3.95zm-10.4-32h-3.94v17.65c0 5.34-2.25 11.68-9.49 11.68-5.47 0-7.6-3.89-7.6-9.92v-19.47h-4v20.48c0 7 3 12.31 10.93 12.31 6.66 0 9-3.57 10.37-6.46h.12v5.73h3.83c-.25-2.58-.25-5.08-.25-7.53zm-38.24 16c0 6.22-2 13.38-9.49 13.38-7 0-9.49-7.54-9.49-13.38s2.45-13.38 9.49-13.38c7.54 0 9.49 7.16 9.49 13.38m-22.92 29.2h3.94v-18.69h.13c2 4.14 5 6.21 10 6.21 8.8 0 13.18-7.28 13.18-16.77 0-9.74-3.76-16.76-13.18-16.76-6.79 0-9.24 4.82-10.24 6.58h-.13l.25-5.83h-3.94zm-21.4-45.22h-3.95v3.64h-.13c-3-3.83-5.72-4.39-10-4.39-9.43 0-13.19 7-13.19 16.76 0 7.1 3.26 16 13.5 16a9.93 9.93 0 0 0 9.74-6.27h.13c0 9-.88 16.46-11.06 16.46a21.65 21.65 0 0 1-9.42-2.3l-.31 4a33.36 33.36 0 0 0 9.67 1.69c11 0 15-7.28 15-16.2zm-22.93 16.02c0-6.22 2-13.38 9.49-13.38 7.23 0 9.49 5.65 9.49 13.38 0 5.84-2.58 12.63-9.74 12.63-6.72 0-9.24-6.34-9.24-12.63m-38.15 16h3.95v-17.75c0-5.33 2.26-11.68 9.49-11.68 5.46 0 7.6 3.89 7.6 9.92v19.51h4v-20.51c0-7-3-12.3-10.93-12.3-6.67 0-9 3.57-10.37 6.46h-.12v-5.71h-3.92c.25 2.58.25 5.09.25 7.54zm-10.59-45.87h-3.95v5.27h3.95zm-3.95 45.87h3.95v-32h-3.95zm-28-.75a24 24 0 0 0 9 1.51c4.84 0 11.18-2.32 11.18-9.1 0-10.49-15.77-9.74-15.77-15.71 0-4.09 2.83-5.34 6.91-5.34a18.7 18.7 0 0 1 7.09 1.51l.37-3.45a25.25 25.25 0 0 0-7.91-1.44c-5.28 0-10.42 2.38-10.42 8.72 0 9.29 15.39 8.1 15.39 15.71 0 3.64-3.33 5.71-7.1 5.71a18.68 18.68 0 0 1-8.35-2zm-7.76-31.31h-4v17.71c0 5.34-2.26 11.68-9.49 11.68-5.47 0-7.61-3.89-7.61-9.92v-19.47h-3.9v20.48c0 7 3 12.31 10.93 12.31 6.66 0 9-3.57 10.36-6.46h.12v5.73h3.83c-.25-2.58-.25-5.08-.25-7.53zm-69.73 16.06c0-6.22 1.95-13.38 9.49-13.38 7 0 9.49 7.54 9.49 13.38s-2.45 13.38-9.49 13.38c-7.54 0-9.49-7.16-9.49-13.38m22.93-31.13h-4v20.47h-.12a10.79 10.79 0 0 0-10-6.15c-9.43 0-13.19 7-13.19 16.76 0 9.49 4.39 16.77 13.19 16.77 4.59 0 7.85-1.76 10-5.84h.12v5.12h4zm-56 28.83c0-5.28 3.58-11.13 9.42-11.13s8.17 5.53 8.17 11.13zm19.54 13.25a20.6 20.6 0 0 1-9 2.38c-6.92 0-10.55-5.46-10.55-12.25h21.92v-2c0-8.61-3.7-15.89-12.75-15.89-8.11 0-13.5 7-13.5 16.76 0 9.61 3.95 16.77 14.57 16.77a26.22 26.22 0 0 0 9.3-1.76zm-29.1-27h-7.34v-9.11l-4 1.38v7.73h-6.28v3.38h6.28v18.67c0 5.84.25 10.68 7.28 10.68a14.45 14.45 0 0 0 4.84-.88l-.25-3.26a9.2 9.2 0 0 1-3.64.75c-3.2 0-4.27-2.38-4.27-5.27v-20.69h7.29zm-37.4 32h4v-15.81c0-5.78 1.69-12.81 8-12.81a10.32 10.32 0 0 1 2.89.38v-4.14a11.66 11.66 0 0 0-2.76-.37c-4.09 0-6.79 3.32-8.23 6.9h-.12v-6.16h-4a56.83 56.83 0 0 1 .25 7.15zm-34.16-15.95c0-7.41 3.71-13.38 10.62-13.38s10.62 6 10.62 13.38-3.71 13.38-10.62 13.38-10.62-6-10.62-13.38m-4.33 0c0 8.73 4.58 16.77 14.95 16.77s14.94-8 14.94-16.77-4.58-16.76-14.94-16.76-14.95 8-14.95 16.76m-11.3 0c0 6.22-2 13.38-9.49 13.38-7 0-9.49-7.54-9.49-13.38s2.45-13.38 9.49-13.38c7.54 0 9.49 7.16 9.49 13.38m-22.93 29.2h3.95v-18.69h.13c1.95 4.14 5 6.21 10 6.21 8.8 0 13.19-7.28 13.19-16.77 0-9.74-3.76-16.76-13.19-16.76-6.79 0-9.24 4.82-10.24 6.58h-.12l.24-5.83h-3.95zm-13.13-29.2c0 6.22-2 13.38-9.49 13.38-7 0-9.49-7.54-9.49-13.38s2.45-13.38 9.49-13.38c7.54 0 9.49 7.16 9.49 13.38m-22.93 29.2h3.95v-18.69h.13c2 4.14 5 6.21 10 6.21 8.8 0 13.18-7.28 13.18-16.77 0-9.74-3.75-16.76-13.18-16.76-6.79 0-9.24 4.82-10.24 6.58h-.13l.25-5.83h-3.95zm-10.4-45.22h-4v17.67c0 5.34-2.26 11.68-9.49 11.68-5.46 0-7.6-3.89-7.6-9.92v-19.47h-3.95v20.48c0 7 3 12.31 10.92 12.31 6.66 0 9.05-3.57 10.37-6.46h.13v5.73h3.83c-.25-2.58-.25-5.08-.25-7.53zm-58.06 30.86a25 25 0 0 0 9.92 1.88c6.79 0 14.38-3.51 14.38-12.37 0-12.81-20.1-12.88-20.1-21.67 0-5.65 5-7.54 9.49-7.54a17.86 17.86 0 0 1 8 1.63l.69-4a26.19 26.19 0 0 0-8.6-1.44c-7.73 0-13.87 4.39-13.87 11.42-.05 11.55 20.09 12.62 20.09 21.25 0 6.22-4.47 9-9.87 9a17.21 17.21 0 0 1-9.67-2.58zM44.54 174.26l-.37-10.73-44.17 15.86.44 11.61 45.16 13.29-.38-10.15-10.06-2.8-.51-13.93zm-17.34 5.39l.34 10.21-18.74-4.79v-.1zM46.56 151.21l3.24-10-17.17-5.57c1.16-3.65 1.61-5 7.95-4.74l12.46.39 3.38-10.47-15.28-.11c-5.62 0-7.68.62-9.06 3.56h-.13c1.05-8.79-5.95-11.27-7.68-11.87-7.87-2.54-12.84 2.4-15.12 9.44l-5.15 15.53zm-32.22-21.08l1-3.07c1.73-5.33 5.51-4.72 7.27-4.16 3.07 1 5 3.83 3.75 7.67l-1.06 3.09zM65.09 107.12l6.04-8.6-29.98-21.01 5.55-7.93-6.61-4.61-17.2 24.51 6.61 4.63 5.6-7.98 29.99 20.99zM73.77 34.5c-3.47 1.85-5.92 2.94-9 5.58-11.46 9.6-4.57 18.68-3.66 19.7 10.21 12.25 21-2.32 26.56 4.28 2.33 2.8 1 6.15-1.6 8.28-3 2.54-6.06 3.12-9.3 4.19l5.17 7.06a43.08 43.08 0 0 0 10.43-6.33c6.83-5.73 8.69-14 3.23-20.44-10.19-12.15-21.24 2.06-26.49-4.18-2.11-2.54-1.2-5.38 1.42-7.54a21.17 21.17 0 0 1 8.23-3.92zM154.63 2.54c-1.83-.33-5.45-1-11.95.53-8.85 2.05-18.12 10.87-14.41 26.83 3.2 13.81 13.6 20.78 25.52 18a36 36 0 0 0 10.53-4.08l-2.48-9a18.3 18.3 0 0 1-8.37 4.38c-6.5 1.51-12.74-3.11-14.7-11.57-2.06-8.77 1-15.37 7.86-17a17 17 0 0 1 9.49.44zM178.18 21.24c-1.58 13 3.24 23.69 16 25.26s20.07-7.56 21.67-20.61-3.24-23.7-16.05-25.24-20 7.56-21.62 20.59m10.68 1.33c1.08-8.49 4-15.18 10-14.45s7.36 7.93 6.32 16.44-4.04 15.2-10.05 14.44-7.31-7.91-6.27-16.42" fill="#162063"/><path d="M230.82 36.86c-5 9.85-2 18 6.91 22.55s17.27 2.21 22.27-7.67l13-25.38-9.33-4.77-13.78 26.85c-2 4-4.72 5.7-8.46 3.79s-4-5.14-2-9.15l13.65-26.85-9.29-4.76zM263.33 73.41l6.35 6.63 23.34-22.44.09.1-14.36 31.67 8.66 8.93 32.13-31.01-6.47-6.66-22.22 21.54-.09-.1 13.22-30.85-8.49-8.88-32.16 31.07zM345.91 117c-.1-1.9-.26-5.6-3.22-11.57-4-8.17-14.68-15.21-29.42-8-12.74 6.19-17.17 17.89-11.85 28.91a36 36 0 0 0 6.39 9.37l8.19-4.43a18.59 18.59 0 0 1-6.07-7.22c-2.94-5.95.14-13.11 7.89-16.93 8.14-4 15.23-2.37 18.32 3.92a16.4 16.4 0 0 1 1.68 9.31zM309.94 150.84l1.83 10.31 43.96-7.73-1.81-10.29-43.98 7.71zM313.02 177.29l-1.72 25.19 8.06.62 1.01-14.74 36.53 2.55.73-10.57-44.61-3.05zM40.03 281.6l12.64 15.01 2.83-2.48-10.1-11.89 13.55-11.4 9.19 11.03 2.82-2.47-9.17-11 12.19-10.26 9.61 11.57 2.86-2.45-12.19-14.5-34.23 28.84zM71.77 314.79l3.08 2.02 22.04-32.75.11.07-6.48 43.2 4.23 2.94 24.98-37.13-3.08-2.03-22.22 33-.1-.07 6.65-43.43-4.23-2.95-24.98 37.13zM141 326.3l7.67 2.22-4.28 15.06a13.05 13.05 0 0 1-6.28-.36c-11.34-3.16-11.91-14.82-9.66-22.66 3.91-13.52 13.48-15.92 19.6-14.1 3.28 1 7 3.4 8.26 5.24l1.42-4.1a25.81 25.81 0 0 0-8.45-4.73c-12-3.41-21.61 5.16-24.77 16.13-2.32 8.18-2.7 23.43 12.36 27.77a20.47 20.47 0 0 0 10.6.5l6-21.27-11.47-3.19zM173.38 351.35h18.51l-.01-3.65h-14.54v-40.98h-3.96v44.63zM210.06 349.41l3.78-1.11.5-13.06 17.14-4.8 7.13 10.75 4-1.15-26.61-39-4 1.2zm5.05-43.59h.12l14.05 21.29-14.84 4.41zM261.75 330.44l3.11-2.1-21.43-33.07.1-.06 37.23 22.82 4.27-2.65-24.32-37.61-3.15 2.12 21.61 33.29-.13.05-37.27-23.05-4.33 2.66 24.31 37.6zM307.19 294.37l4.27-5.34c8.83-11.44 4.87-22.62-5.37-30.63-11.36-8.91-21.39-7.83-30.51 3.92l-3.63 4.54zm-29.8-28.37l2.07-2.55c9.17-11.91 19-5.68 24.59-1.23 8.8 6.86 11.28 15.73 5.17 23.55l-2.53 3.31zM448.84 0h4.62v352.34h-4.62z" fill="#162063"/></svg>
